<svg width="512" height="512" xmlns="http://www.w3.org/2000/svg">

 <g>
  <title>Layer 1</title>
  <path id="svg_1" d="m112.461,118.386c0,-31.015 25.216,-56.231 56.231,-56.231l140.576,0l0,112.462c0,15.551 12.564,28.115 28.115,28.115l112.462,0l0,253.037c0,31.015 -25.216,56.231 -56.231,56.231l-224.922,0c-31.015,0 -56.231,-25.216 -56.231,-56.231l0,-98.403l152.965,0l-34.266,34.265c-8.259,8.259 -8.259,21.614 0,29.785c8.259,8.171 21.614,8.259 29.785,0l70.288,-70.288c8.259,-8.259 8.259,-21.614 0,-29.785l-70.288,-70.288c-8.259,-8.259 -21.614,-8.259 -29.785,0c-8.171,8.259 -8.259,21.614 0,29.785l34.266,34.265l-152.965,0.088l0,-196.807zm0,196.807l0,42.173l-91.375,0c-11.685,0 -21.086,-9.401 -21.086,-21.087c0,-11.685 9.401,-21.086 21.086,-21.086l91.375,0zm337.384,-140.576l-112.462,0l0,-112.462l112.462,112.462z"/>
  <path stroke="null" id="svg_3" d="m427.80769,15.30769a15.30769,15.30769 0 0 0 -30.61539,0l0,68.88462l-68.88462,0a15.30769,15.30769 0 0 0 0,30.61539l68.88462,0l0,68.88462a15.30769,15.30769 0 0 0 30.61539,0l0,-68.88462l68.88462,0a15.30769,15.30769 0 0 0 0,-30.61539l-68.88462,0l0,-68.88462z"/>
 </g>
</svg>