<svg xmlns="http://www.w3.org/2000/svg" viewBox="0 0 512 512">
<path d="M 112.461 118.386 C 112.461 87.371 137.677 62.155 168.692 62.155 L 309.268 62.155 L 309.268 174.617 C 309.268 190.168 321.832 202.732 337.383 202.732 L 449.845 202.732 L 449.845 455.769 C 449.845 486.784 424.629 512 393.614 512 L 168.692 512 C 137.677 512 112.461 486.784 112.461 455.769 L 112.461 357.366 L 265.426 357.366 L 231.16 391.631 C 222.901 399.89 222.901 413.245 231.16 421.416 C 239.419 429.587 252.774 429.675 260.945 421.416 L 331.233 351.128 C 339.492 342.869 339.492 329.514 331.233 321.343 L 260.945 251.055 C 252.686 242.796 239.331 242.796 231.16 251.055 C 222.989 259.314 222.901 272.669 231.16 280.84 L 265.426 315.105 L 112.461 315.193 L 112.461 118.386 Z M 112.461 315.193 L 112.461 357.366 L 21.086 357.366 C 9.401 357.366 0 347.965 0 336.279 C 0 324.594 9.401 315.193 21.086 315.193 L 112.461 315.193 Z M 449.845 174.617 L 337.383 174.617 L 337.383 62.155 L 449.845 174.617 Z" style=""></path>
<path d="M 511.447 68.882 C 512.77 72.478 511.654 76.489 508.801 79.052 L 490.898 95.343 C 491.354 98.773 491.601 102.289 491.601 105.844 C 491.601 109.4 491.354 112.914 490.898 116.346 L 508.801 132.636 C 511.654 135.199 512.77 139.21 511.447 142.807 C 509.629 147.726 507.437 152.44 504.914 156.988 L 502.971 160.337 C 500.243 164.885 497.183 169.184 493.834 173.236 C 491.394 176.213 487.343 177.206 483.705 176.048 L 460.676 168.73 C 455.135 172.988 449.016 176.544 442.483 179.232 L 437.315 202.84 C 436.488 206.602 433.594 209.579 429.79 210.199 C 424.085 211.15 418.214 211.647 412.219 211.647 C 406.224 211.647 400.353 211.15 394.646 210.199 C 390.843 209.579 387.949 206.602 387.122 202.84 L 381.954 179.232 C 375.421 176.544 369.302 172.988 363.762 168.73 L 340.774 176.09 C 337.136 177.247 333.084 176.213 330.645 173.279 C 327.295 169.227 324.236 164.926 321.507 160.379 L 319.563 157.029 C 317.042 152.482 314.85 147.768 313.031 142.848 C 311.708 139.251 312.825 135.24 315.677 132.677 L 333.58 116.387 C 333.125 112.914 332.877 109.4 332.877 105.844 C 332.877 102.289 333.125 98.773 333.58 95.343 L 315.677 79.052 C 312.825 76.489 311.708 72.478 313.031 68.882 C 314.85 63.961 317.042 59.247 319.563 54.7 L 321.507 51.351 C 324.236 46.803 327.295 42.503 330.645 38.451 C 333.084 35.475 337.136 34.482 340.774 35.64 L 363.803 42.958 C 369.343 38.7 375.463 35.144 381.995 32.456 L 387.163 8.848 C 387.99 5.085 390.885 2.108 394.689 1.488 C 400.394 0.496 406.265 0 412.26 0 C 418.255 0 424.126 0.496 429.832 1.447 C 433.636 2.068 436.53 5.044 437.357 8.806 L 442.525 32.415 C 449.057 35.102 455.176 38.657 460.717 42.917 L 483.746 35.598 C 487.384 34.44 491.436 35.475 493.875 38.41 C 497.225 42.462 500.284 46.761 503.013 51.31 L 504.956 54.658 C 507.478 59.207 509.669 63.919 511.489 68.84 L 511.447 68.882 Z M 412.26 138.92 C 437.722 138.92 453.636 111.356 440.905 89.306 C 434.997 79.072 424.076 72.768 412.26 72.768 C 386.798 72.768 370.883 100.332 383.615 122.382 C 389.523 132.616 400.443 138.92 412.26 138.92 Z" style="stroke-width: 1;"></path>
</svg>